# xmcd
#
# Track frame offsets: 
#        150
#        15411
#        30844
#        49487
#        63780
#        78031
#        92140
#        108857
#        125750
#        140674
#        158360
#        169188
#        184140
#        199281
#        214511
#        223397
#        237398
#        252641
#        266068
#        281774
#
# Disc length: 3979 seconds
#
# Revision: 0
# Processed by: cddbd v1.5.2PL0 Copyright (c) Steve Scherf et al.
# Submitted via: ExactAudioCopy v0.99pb4
#
DISCID=230f8914
DTITLE=Various Artist - 100 Hollandse Hits - CD 4
DYEAR=2010
DGENRE=National Folk
TTITLE0=Aan Alle Mooie Meiden (Goldfinger remix) - Willem Barth
TTITLE1=Ik Spring Uit Een Vliegmachien - Eddy Wally
TTITLE2=Laat De Zon In Je Hart - Rene Schuurmans
TTITLE3=Meissie Meissie - Alex
TTITLE4=Leve De Lol - Ed Nieman
TTITLE5=Mandy - Ferry de Lits
TTITLE6=De Nozem En De Non - Cornelis Vreeswijk
TTITLE7=Ik Bel Je Zomaar Even Op - Gordon
TTITLE8=Alle Duiven Op De Dam - Gert and Hermien
TTITLE9=De Verzonken Stad - Frank and Mirella
TTITLE10=In De Maneschijn - One Two Trio
TTITLE11=Ik Ben Met Jou Niet Getrouwd - Doenja
TTITLE12=Hey Baby - Cooldown Café
TTITLE13=Bonjour Mon Ami  - Liesbeth
TTITLE14=Wals Met Me Mee Door De Nacht - Mieke
TTITLE15=Het Reuzenrad - Heeren van Holland
TTITLE16=De Fles - Jan Boezeroen
TTITLE17=Oh, Mia Bella, Bella Margarita - Franky-Boy
TTITLE18=Man Van De Marine - Nienke
TTITLE19=Oerend Hard - Normaal
EXTD=
EXTT0=
EXTT1=
EXTT2=
EXTT3=
EXTT4=
EXTT5=
EXTT6=
EXTT7=
EXTT8=
EXTT9=
EXTT10=
EXTT11=
EXTT12=
EXTT13=
EXTT14=
EXTT15=
EXTT16=
EXTT17=
EXTT18=
EXTT19=
PLAYORDER=
